<svg xmlns="http://www.w3.org/2000/svg" version="1.1" xmlns:xlink="http://www.w3.org/1999/xlink" xmlns:svgjs="http://svgjs.dev/svgjs" width="1920" height="1080" preserveAspectRatio="none" viewBox="0 0 1920 1080"><g mask="url(&quot;#SvgjsMask2535&quot;)" fill="none"><g mask="url(&quot;#SvgjsMask2537&quot;)"><path d="M1813.5 573.5L1782.5 542.5L1751.5 542.5L1720.5 542.5M1348.5 604.5L1317.5 573.5L1286.5 573.5L1255.5 573.5L1224.5 573.5L1193.5 573.5M1472.5 604.5L1441.5 635.5M1844.5 542.5L1813.5 542.5M1565.5 573.5L1534.5 573.5M1937.5 542.5L1906.5 542.5L1875.5 542.5L1844.5 542.5L1813.5 573.5L1782.5 573.5L1751.5 573.5L1720.5 573.5L1689.5 573.5L1658.5 573.5L1627.5 573.5L1596.5 573.5L1565.5 573.5L1534.5 604.5L1503.5 604.5L1472.5 604.5L1441.5 604.5L1410.5 604.5L1379.5 604.5L1348.5 604.5L1317.5 604.5L1286.5 604.5" stroke="url(&quot;#SvgjsLinearGradient2536&quot;)" stroke-width="5.17"></path><path d="M1278.75 604.5 a7.75 7.75 0 1 0 15.5 0 a7.75 7.75 0 1 0 -15.5 0zM1712.75 542.5 a7.75 7.75 0 1 0 15.5 0 a7.75 7.75 0 1 0 -15.5 0zM1185.75 573.5 a7.75 7.75 0 1 0 15.5 0 a7.75 7.75 0 1 0 -15.5 0zM1433.75 635.5 a7.75 7.75 0 1 0 15.5 0 a7.75 7.75 0 1 0 -15.5 0zM1805.75 542.5 a7.75 7.75 0 1 0 15.5 0 a7.75 7.75 0 1 0 -15.5 0zM1526.75 573.5 a7.75 7.75 0 1 0 15.5 0 a7.75 7.75 0 1 0 -15.5 0z" fill="url(&quot;#SvgjsLinearGradient2536&quot;)"></path><path d="M1534.5 480.5L1503.5 511.5L1472.5 511.5L1441.5 511.5L1410.5 511.5M1596.5 480.5L1565.5 511.5L1534.5 511.5L1503.5 542.5M1627.5 480.5L1596.5 511.5L1565.5 542.5L1534.5 542.5M1658.5 511.5L1627.5 511.5M1937.5 511.5L1906.5 511.5L1875.5 511.5L1844.5 511.5L1813.5 511.5L1782.5 511.5L1751.5 511.5L1720.5 511.5L1689.5 511.5L1658.5 511.5L1627.5 480.5L1596.5 480.5L1565.5 480.5L1534.5 480.5L1503.5 480.5L1472.5 480.5L1441.5 480.5L1410.5 480.5L1379.5 480.5" stroke="url(&quot;#SvgjsLinearGradient2536&quot;)" stroke-width="5.17"></path><path d="M1371.75 480.5 a7.75 7.75 0 1 0 15.5 0 a7.75 7.75 0 1 0 -15.5 0zM1402.75 511.5 a7.75 7.75 0 1 0 15.5 0 a7.75 7.75 0 1 0 -15.5 0zM1495.75 542.5 a7.75 7.75 0 1 0 15.5 0 a7.75 7.75 0 1 0 -15.5 0zM1526.75 542.5 a7.75 7.75 0 1 0 15.5 0 a7.75 7.75 0 1 0 -15.5 0zM1619.75 511.5 a7.75 7.75 0 1 0 15.5 0 a7.75 7.75 0 1 0 -15.5 0z" fill="url(&quot;#SvgjsLinearGradient2536&quot;)"></path><path d="M1937.5 573.5L1906.5 573.5L1875.5 573.5L1844.5 573.5L1813.5 604.5L1782.5 604.5L1751.5 604.5L1720.5 604.5L1689.5 604.5L1658.5 604.5" stroke="url(&quot;#SvgjsLinearGradient2536&quot;)" stroke-width="5.17"></path><path d="M1650.75 604.5 a7.75 7.75 0 1 0 15.5 0 a7.75 7.75 0 1 0 -15.5 0z" fill="url(&quot;#SvgjsLinearGradient2536&quot;)"></path><path d="M1503.5 449.5L1472.5 418.5L1441.5 418.5L1410.5 418.5L1379.5 418.5L1348.5 418.5M1689.5 480.5L1658.5 449.5L1627.5 418.5L1596.5 418.5L1565.5 418.5L1534.5 418.5M1813.5 480.5L1782.5 449.5L1751.5 449.5L1720.5 449.5L1689.5 449.5L1658.5 418.5M1844.5 480.5L1813.5 449.5L1782.5 418.5L1751.5 418.5L1720.5 418.5L1689.5 418.5M1255.5 449.5L1224.5 480.5L1193.5 480.5L1162.5 480.5M1038.5 480.5L1007.5 511.5L976.5 511.5L945.5 511.5L914.5 511.5L883.5 542.5L852.5 542.5L821.5 542.5L790.5 542.5L759.5 542.5M1069.5 480.5L1038.5 511.5L1007.5 542.5L976.5 542.5L945.5 542.5L914.5 542.5L883.5 573.5L852.5 573.5L821.5 573.5L790.5 604.5L759.5 604.5L728.5 604.5M1937.5 480.5L1906.5 480.5L1875.5 480.5L1844.5 480.5L1813.5 480.5L1782.5 480.5L1751.5 480.5L1720.5 480.5L1689.5 480.5L1658.5 480.5L1627.5 449.5L1596.5 449.5L1565.5 449.5L1534.5 449.5L1503.5 449.5L1472.5 449.5L1441.5 449.5L1410.5 449.5L1379.5 449.5L1348.5 449.5L1317.5 449.5L1286.5 449.5L1255.5 449.5L1224.5 449.5L1193.5 449.5L1162.5 449.5L1131.5 449.5L1100.5 449.5L1069.5 480.5L1038.5 480.5L1007.5 480.5" stroke="url(&quot;#SvgjsLinearGradient2536&quot;)" stroke-width="5.17"></path><path d="M999.75 480.5 a7.75 7.75 0 1 0 15.5 0 a7.75 7.75 0 1 0 -15.5 0zM1340.75 418.5 a7.75 7.75 0 1 0 15.5 0 a7.75 7.75 0 1 0 -15.5 0zM1526.75 418.5 a7.75 7.75 0 1 0 15.5 0 a7.75 7.75 0 1 0 -15.5 0zM1650.75 418.5 a7.75 7.75 0 1 0 15.5 0 a7.75 7.75 0 1 0 -15.5 0zM1681.75 418.5 a7.75 7.75 0 1 0 15.5 0 a7.75 7.75 0 1 0 -15.5 0zM1154.75 480.5 a7.75 7.75 0 1 0 15.5 0 a7.75 7.75 0 1 0 -15.5 0zM751.75 542.5 a7.75 7.75 0 1 0 15.5 0 a7.75 7.75 0 1 0 -15.5 0zM720.75 604.5 a7.75 7.75 0 1 0 15.5 0 a7.75 7.75 0 1 0 -15.5 0z" fill="url(&quot;#SvgjsLinearGradient2536&quot;)"></path><path d="M1720.5 635.5L1689.5 666.5L1658.5 666.5M1782.5 635.5L1751.5 666.5L1720.5 666.5M1937.5 604.5L1906.5 604.5L1875.5 604.5L1844.5 604.5L1813.5 635.5L1782.5 635.5L1751.5 635.5L1720.5 635.5L1689.5 635.5L1658.5 635.5" stroke="url(&quot;#SvgjsLinearGradient2536&quot;)" stroke-width="5.17"></path><path d="M1650.75 635.5 a7.75 7.75 0 1 0 15.5 0 a7.75 7.75 0 1 0 -15.5 0zM1650.75 666.5 a7.75 7.75 0 1 0 15.5 0 a7.75 7.75 0 1 0 -15.5 0zM1712.75 666.5 a7.75 7.75 0 1 0 15.5 0 a7.75 7.75 0 1 0 -15.5 0z" fill="url(&quot;#SvgjsLinearGradient2536&quot;)"></path><path d="M883.5 387.5L852.5 418.5M945.5 387.5L914.5 418.5L883.5 418.5L852.5 449.5L821.5 480.5M1131.5 387.5L1100.5 418.5L1069.5 418.5M852.5 387.5L821.5 356.5L790.5 325.5L759.5 325.5L728.5 325.5M1410.5 387.5L1379.5 356.5M1162.5 387.5L1131.5 418.5M1348.5 387.5L1317.5 387.5M1906.5 449.5L1875.5 449.5L1844.5 449.5L1813.5 418.5M1224.5 418.5L1193.5 418.5L1162.5 418.5M1937.5 449.5L1906.5 449.5L1875.5 418.5L1844.5 387.5L1813.5 387.5L1782.5 387.5L1751.5 387.5L1720.5 387.5L1689.5 387.5L1658.5 387.5L1627.5 387.5L1596.5 387.5L1565.5 387.5L1534.5 387.5L1503.5 387.5L1472.5 387.5L1441.5 387.5L1410.5 387.5L1379.5 387.5L1348.5 387.5L1317.5 418.5L1286.5 418.5L1255.5 418.5L1224.5 418.5L1193.5 387.5L1162.5 387.5L1131.5 387.5L1100.5 387.5L1069.5 387.5L1038.5 387.5L1007.5 387.5L976.5 387.5L945.5 387.5L914.5 387.5L883.5 387.5L852.5 387.5L821.5 387.5L790.5 387.5" stroke="url(&quot;#SvgjsLinearGradient2536&quot;)" stroke-width="5.17"></path><path d="M782.75 387.5 a7.75 7.75 0 1 0 15.5 0 a7.75 7.75 0 1 0 -15.5 0zM844.75 418.5 a7.75 7.75 0 1 0 15.5 0 a7.75 7.75 0 1 0 -15.5 0zM813.75 480.5 a7.75 7.75 0 1 0 15.5 0 a7.75 7.75 0 1 0 -15.5 0zM1061.75 418.5 a7.75 7.75 0 1 0 15.5 0 a7.75 7.75 0 1 0 -15.5 0zM720.75 325.5 a7.75 7.75 0 1 0 15.5 0 a7.75 7.75 0 1 0 -15.5 0zM1371.75 356.5 a7.75 7.75 0 1 0 15.5 0 a7.75 7.75 0 1 0 -15.5 0zM1123.75 418.5 a7.75 7.75 0 1 0 15.5 0 a7.75 7.75 0 1 0 -15.5 0zM1309.75 387.5 a7.75 7.75 0 1 0 15.5 0 a7.75 7.75 0 1 0 -15.5 0zM1805.75 418.5 a7.75 7.75 0 1 0 15.5 0 a7.75 7.75 0 1 0 -15.5 0zM1154.75 418.5 a7.75 7.75 0 1 0 15.5 0 a7.75 7.75 0 1 0 -15.5 0z" fill="url(&quot;#SvgjsLinearGradient2536&quot;)"></path><path d="M1937.5 635.5L1906.5 635.5L1875.5 635.5L1844.5 635.5L1813.5 666.5" stroke="url(&quot;#SvgjsLinearGradient2536&quot;)" stroke-width="5.17"></path><path d="M1805.75 666.5 a7.75 7.75 0 1 0 15.5 0 a7.75 7.75 0 1 0 -15.5 0z" fill="url(&quot;#SvgjsLinearGradient2536&quot;)"></path><path d="M1937.5 418.5L1906.5 418.5L1875.5 387.5L1844.5 356.5L1813.5 356.5L1782.5 356.5L1751.5 356.5L1720.5 356.5L1689.5 356.5L1658.5 356.5L1627.5 356.5L1596.5 356.5L1565.5 356.5L1534.5 356.5L1503.5 356.5L1472.5 356.5L1441.5 356.5" stroke="url(&quot;#SvgjsLinearGradient2536&quot;)" stroke-width="5.17"></path><path d="M1433.75 356.5 a7.75 7.75 0 1 0 15.5 0 a7.75 7.75 0 1 0 -15.5 0z" fill="url(&quot;#SvgjsLinearGradient2536&quot;)"></path><path d="M1534.5 728.5L1503.5 759.5L1472.5 759.5L1441.5 759.5M1317.5 728.5L1286.5 759.5M1565.5 697.5L1534.5 697.5L1503.5 697.5M1348.5 728.5L1317.5 759.5M1472.5 728.5L1441.5 697.5L1410.5 697.5L1379.5 697.5M1937.5 666.5L1906.5 666.5L1875.5 666.5L1844.5 666.5L1813.5 697.5L1782.5 697.5L1751.5 697.5L1720.5 697.5L1689.5 697.5L1658.5 697.5L1627.5 697.5L1596.5 697.5L1565.5 697.5L1534.5 728.5L1503.5 728.5L1472.5 728.5L1441.5 728.5L1410.5 728.5L1379.5 728.5L1348.5 728.5L1317.5 728.5L1286.5 728.5" stroke="url(&quot;#SvgjsLinearGradient2536&quot;)" stroke-width="5.17"></path><path d="M1278.75 728.5 a7.75 7.75 0 1 0 15.5 0 a7.75 7.75 0 1 0 -15.5 0zM1433.75 759.5 a7.75 7.75 0 1 0 15.5 0 a7.75 7.75 0 1 0 -15.5 0zM1278.75 759.5 a7.75 7.75 0 1 0 15.5 0 a7.75 7.75 0 1 0 -15.5 0zM1495.75 697.5 a7.75 7.75 0 1 0 15.5 0 a7.75 7.75 0 1 0 -15.5 0zM1309.75 759.5 a7.75 7.75 0 1 0 15.5 0 a7.75 7.75 0 1 0 -15.5 0zM1371.75 697.5 a7.75 7.75 0 1 0 15.5 0 a7.75 7.75 0 1 0 -15.5 0z" fill="url(&quot;#SvgjsLinearGradient2536&quot;)"></path><path d="M1317.5 356.5L1286.5 356.5L1255.5 356.5L1224.5 356.5L1193.5 325.5M1100.5 356.5L1069.5 325.5L1038.5 325.5L1007.5 325.5L976.5 325.5L945.5 325.5M1410.5 325.5L1379.5 294.5L1348.5 294.5M914.5 356.5L883.5 325.5L852.5 325.5L821.5 325.5M1131.5 356.5L1100.5 325.5L1069.5 294.5L1038.5 294.5M1379.5 325.5L1348.5 325.5L1317.5 325.5L1286.5 294.5L1255.5 294.5L1224.5 294.5L1193.5 263.5L1162.5 263.5L1131.5 263.5M1162.5 356.5L1131.5 325.5L1100.5 294.5L1069.5 263.5M1441.5 325.5L1410.5 294.5M1937.5 387.5L1906.5 387.5L1875.5 356.5L1844.5 325.5L1813.5 325.5L1782.5 325.5L1751.5 325.5L1720.5 325.5L1689.5 325.5L1658.5 325.5L1627.5 325.5L1596.5 325.5L1565.5 325.5L1534.5 325.5L1503.5 325.5L1472.5 325.5L1441.5 325.5L1410.5 325.5L1379.5 325.5L1348.5 356.5L1317.5 356.5L1286.5 387.5L1255.5 387.5L1224.5 387.5L1193.5 356.5L1162.5 356.5L1131.5 356.5L1100.5 356.5L1069.5 356.5L1038.5 356.5L1007.5 356.5L976.5 356.5L945.5 356.5L914.5 356.5L883.5 356.5" stroke="url(&quot;#SvgjsLinearGradient2536&quot;)" stroke-width="5.17"></path><path d="M875.75 356.5 a7.75 7.75 0 1 0 15.5 0 a7.75 7.75 0 1 0 -15.5 0zM1185.75 325.5 a7.75 7.75 0 1 0 15.5 0 a7.75 7.75 0 1 0 -15.5 0zM937.75 325.5 a7.75 7.75 0 1 0 15.5 0 a7.75 7.75 0 1 0 -15.5 0zM1340.75 294.5 a7.75 7.75 0 1 0 15.5 0 a7.75 7.75 0 1 0 -15.5 0zM813.75 325.5 a7.75 7.75 0 1 0 15.5 0 a7.75 7.75 0 1 0 -15.5 0zM1030.75 294.5 a7.75 7.75 0 1 0 15.5 0 a7.75 7.75 0 1 0 -15.5 0zM1123.75 263.5 a7.75 7.75 0 1 0 15.5 0 a7.75 7.75 0 1 0 -15.5 0zM1061.75 263.5 a7.75 7.75 0 1 0 15.5 0 a7.75 7.75 0 1 0 -15.5 0zM1402.75 294.5 a7.75 7.75 0 1 0 15.5 0 a7.75 7.75 0 1 0 -15.5 0z" fill="url(&quot;#SvgjsLinearGradient2536&quot;)"></path><path d="M1441.5 790.5L1410.5 821.5L1379.5 821.5M1720.5 728.5L1689.5 759.5L1658.5 790.5L1627.5 790.5L1596.5 790.5L1565.5 790.5M1472.5 790.5L1441.5 821.5L1410.5 852.5L1379.5 852.5L1348.5 852.5M1410.5 790.5L1379.5 759.5L1348.5 759.5M1503.5 790.5L1472.5 821.5L1441.5 852.5L1410.5 883.5L1379.5 883.5L1348.5 883.5M1937.5 697.5L1906.5 697.5L1875.5 697.5L1844.5 697.5L1813.5 728.5L1782.5 728.5L1751.5 728.5L1720.5 728.5L1689.5 728.5L1658.5 759.5L1627.5 759.5L1596.5 759.5L1565.5 759.5L1534.5 790.5L1503.5 790.5L1472.5 790.5L1441.5 790.5L1410.5 790.5L1379.5 790.5L1348.5 790.5L1317.5 790.5L1286.5 790.5" stroke="url(&quot;#SvgjsLinearGradient2536&quot;)" stroke-width="5.17"></path><path d="M1278.75 790.5 a7.75 7.75 0 1 0 15.5 0 a7.75 7.75 0 1 0 -15.5 0zM1371.75 821.5 a7.75 7.75 0 1 0 15.5 0 a7.75 7.75 0 1 0 -15.5 0zM1557.75 790.5 a7.75 7.75 0 1 0 15.5 0 a7.75 7.75 0 1 0 -15.5 0zM1340.75 852.5 a7.75 7.75 0 1 0 15.5 0 a7.75 7.75 0 1 0 -15.5 0zM1340.75 759.5 a7.75 7.75 0 1 0 15.5 0 a7.75 7.75 0 1 0 -15.5 0zM1340.75 883.5 a7.75 7.75 0 1 0 15.5 0 a7.75 7.75 0 1 0 -15.5 0z" fill="url(&quot;#SvgjsLinearGradient2536&quot;)"></path><path d="M1534.5 294.5L1503.5 263.5L1472.5 263.5M1472.5 294.5L1441.5 294.5M1565.5 294.5L1534.5 263.5M1937.5 356.5L1906.5 356.5L1875.5 325.5L1844.5 294.5L1813.5 294.5L1782.5 294.5L1751.5 294.5L1720.5 294.5L1689.5 294.5L1658.5 294.5L1627.5 294.5L1596.5 294.5L1565.5 294.5L1534.5 294.5L1503.5 294.5L1472.5 294.5L1441.5 263.5L1410.5 263.5L1379.5 263.5" stroke="url(&quot;#SvgjsLinearGradient2536&quot;)" stroke-width="5.17"></path><path d="M1371.75 263.5 a7.75 7.75 0 1 0 15.5 0 a7.75 7.75 0 1 0 -15.5 0zM1464.75 263.5 a7.75 7.75 0 1 0 15.5 0 a7.75 7.75 0 1 0 -15.5 0zM1433.75 294.5 a7.75 7.75 0 1 0 15.5 0 a7.75 7.75 0 1 0 -15.5 0zM1526.75 263.5 a7.75 7.75 0 1 0 15.5 0 a7.75 7.75 0 1 0 -15.5 0z" fill="url(&quot;#SvgjsLinearGradient2536&quot;)"></path><path d="M1937.5 728.5L1906.5 728.5L1875.5 759.5L1844.5 759.5" stroke="url(&quot;#SvgjsLinearGradient2536&quot;)" stroke-width="5.17"></path><path d="M1836.75 759.5 a7.75 7.75 0 1 0 15.5 0 a7.75 7.75 0 1 0 -15.5 0z" fill="url(&quot;#SvgjsLinearGradient2536&quot;)"></path><path d="M1317.5 232.5L1286.5 263.5M1348.5 232.5L1317.5 263.5M1131.5 232.5L1100.5 201.5L1069.5 201.5L1038.5 201.5L1007.5 201.5L976.5 201.5L945.5 201.5L914.5 201.5M945.5 294.5L914.5 263.5L883.5 263.5M1038.5 263.5L1007.5 263.5L976.5 263.5L945.5 263.5M1224.5 232.5L1193.5 201.5L1162.5 201.5M1596.5 263.5L1565.5 263.5M1255.5 232.5L1224.5 263.5M1069.5 232.5L1038.5 232.5L1007.5 232.5L976.5 232.5L945.5 232.5L914.5 232.5L883.5 201.5L852.5 201.5L821.5 201.5L790.5 201.5L759.5 201.5L728.5 201.5M1937.5 325.5L1906.5 325.5L1875.5 294.5L1844.5 263.5L1813.5 263.5L1782.5 263.5L1751.5 263.5L1720.5 263.5L1689.5 263.5L1658.5 263.5L1627.5 263.5L1596.5 263.5L1565.5 232.5L1534.5 232.5L1503.5 232.5L1472.5 232.5L1441.5 232.5L1410.5 232.5L1379.5 232.5L1348.5 232.5L1317.5 232.5L1286.5 232.5L1255.5 232.5L1224.5 232.5L1193.5 232.5L1162.5 232.5L1131.5 232.5L1100.5 232.5L1069.5 232.5L1038.5 263.5L1007.5 294.5L976.5 294.5L945.5 294.5L914.5 294.5L883.5 294.5L852.5 294.5L821.5 294.5" stroke="url(&quot;#SvgjsLinearGradient2536&quot;)" stroke-width="5.17"></path><path d="M813.75 294.5 a7.75 7.75 0 1 0 15.5 0 a7.75 7.75 0 1 0 -15.5 0zM1278.75 263.5 a7.75 7.75 0 1 0 15.5 0 a7.75 7.75 0 1 0 -15.5 0zM1309.75 263.5 a7.75 7.75 0 1 0 15.5 0 a7.75 7.75 0 1 0 -15.5 0zM906.75 201.5 a7.75 7.75 0 1 0 15.5 0 a7.75 7.75 0 1 0 -15.5 0zM875.75 263.5 a7.75 7.75 0 1 0 15.5 0 a7.75 7.75 0 1 0 -15.5 0zM937.75 263.5 a7.75 7.75 0 1 0 15.5 0 a7.75 7.75 0 1 0 -15.5 0zM1154.75 201.5 a7.75 7.75 0 1 0 15.5 0 a7.75 7.75 0 1 0 -15.5 0zM1557.75 263.5 a7.75 7.75 0 1 0 15.5 0 a7.75 7.75 0 1 0 -15.5 0zM1216.75 263.5 a7.75 7.75 0 1 0 15.5 0 a7.75 7.75 0 1 0 -15.5 0zM720.75 201.5 a7.75 7.75 0 1 0 15.5 0 a7.75 7.75 0 1 0 -15.5 0z" fill="url(&quot;#SvgjsLinearGradient2536&quot;)"></path><path d="M1875.5 790.5L1844.5 821.5L1813.5 821.5L1782.5 821.5M1937.5 759.5L1906.5 759.5L1875.5 790.5L1844.5 790.5" stroke="url(&quot;#SvgjsLinearGradient2536&quot;)" stroke-width="5.17"></path><path d="M1836.75 790.5 a7.75 7.75 0 1 0 15.5 0 a7.75 7.75 0 1 0 -15.5 0zM1774.75 821.5 a7.75 7.75 0 1 0 15.5 0 a7.75 7.75 0 1 0 -15.5 0z" fill="url(&quot;#SvgjsLinearGradient2536&quot;)"></path><path d="M1441.5 201.5L1410.5 170.5L1379.5 170.5L1348.5 170.5L1317.5 170.5M1503.5 201.5L1472.5 170.5L1441.5 170.5L1410.5 139.5L1379.5 139.5M1224.5 170.5L1193.5 170.5L1162.5 170.5L1131.5 170.5L1100.5 170.5L1069.5 170.5L1038.5 170.5L1007.5 170.5M1751.5 232.5L1720.5 201.5M1782.5 232.5L1751.5 201.5L1720.5 170.5L1689.5 170.5L1658.5 170.5L1627.5 170.5L1596.5 170.5L1565.5 170.5L1534.5 170.5L1503.5 170.5L1472.5 139.5L1441.5 139.5M1658.5 232.5L1627.5 201.5M1813.5 232.5L1782.5 201.5L1751.5 170.5L1720.5 139.5L1689.5 139.5L1658.5 139.5M1937.5 294.5L1906.5 294.5L1875.5 263.5L1844.5 232.5L1813.5 232.5L1782.5 232.5L1751.5 232.5L1720.5 232.5L1689.5 232.5L1658.5 232.5L1627.5 232.5L1596.5 201.5L1565.5 201.5L1534.5 201.5L1503.5 201.5L1472.5 201.5L1441.5 201.5L1410.5 201.5L1379.5 201.5L1348.5 201.5L1317.5 201.5L1286.5 201.5L1255.5 170.5L1224.5 170.5L1193.5 139.5L1162.5 139.5L1131.5 139.5L1100.5 139.5" stroke="url(&quot;#SvgjsLinearGradient2536&quot;)" stroke-width="5.17"></path><path d="M1092.75 139.5 a7.75 7.75 0 1 0 15.5 0 a7.75 7.75 0 1 0 -15.5 0zM1309.75 170.5 a7.75 7.75 0 1 0 15.5 0 a7.75 7.75 0 1 0 -15.5 0zM1371.75 139.5 a7.75 7.75 0 1 0 15.5 0 a7.75 7.75 0 1 0 -15.5 0zM999.75 170.5 a7.75 7.75 0 1 0 15.5 0 a7.75 7.75 0 1 0 -15.5 0zM1712.75 201.5 a7.75 7.75 0 1 0 15.5 0 a7.75 7.75 0 1 0 -15.5 0zM1433.75 139.5 a7.75 7.75 0 1 0 15.5 0 a7.75 7.75 0 1 0 -15.5 0zM1619.75 201.5 a7.75 7.75 0 1 0 15.5 0 a7.75 7.75 0 1 0 -15.5 0zM1650.75 139.5 a7.75 7.75 0 1 0 15.5 0 a7.75 7.75 0 1 0 -15.5 0z" fill="url(&quot;#SvgjsLinearGradient2536&quot;)"></path></g></g><defs><mask id="SvgjsMask2535"><rect width="1920" height="1080" fill="#ffffff"></rect></mask><linearGradient x1="652.8" y1="540" x2="1920" y2="540" gradientUnits="userSpaceOnUse" id="SvgjsLinearGradient2536"><stop stop-color="rgba(41, 119, 132, 1)" offset="0.01"></stop><stop stop-color="rgba(161, 43, 178, 1)" offset="1"></stop></linearGradient><mask id="SvgjsMask2537"><rect width="1920" height="1080" fill="white"></rect><path d="M1282.62 604.5 a3.88 3.88 0 1 0 7.76 0 a3.88 3.88 0 1 0 -7.76 0zM1716.62 542.5 a3.88 3.88 0 1 0 7.76 0 a3.88 3.88 0 1 0 -7.76 0zM1189.62 573.5 a3.88 3.88 0 1 0 7.76 0 a3.88 3.88 0 1 0 -7.76 0zM1437.62 635.5 a3.88 3.88 0 1 0 7.76 0 a3.88 3.88 0 1 0 -7.76 0zM1809.62 542.5 a3.88 3.88 0 1 0 7.76 0 a3.88 3.88 0 1 0 -7.76 0zM1530.62 573.5 a3.88 3.88 0 1 0 7.76 0 a3.88 3.88 0 1 0 -7.76 0z" fill="black"></path><path d="M1375.62 480.5 a3.88 3.88 0 1 0 7.76 0 a3.88 3.88 0 1 0 -7.76 0zM1406.62 511.5 a3.88 3.88 0 1 0 7.76 0 a3.88 3.88 0 1 0 -7.76 0zM1499.62 542.5 a3.88 3.88 0 1 0 7.76 0 a3.88 3.88 0 1 0 -7.76 0zM1530.62 542.5 a3.88 3.88 0 1 0 7.76 0 a3.88 3.88 0 1 0 -7.76 0zM1623.62 511.5 a3.88 3.88 0 1 0 7.76 0 a3.88 3.88 0 1 0 -7.76 0z" fill="black"></path><path d="M1654.62 604.5 a3.88 3.88 0 1 0 7.76 0 a3.88 3.88 0 1 0 -7.76 0z" fill="black"></path><path d="M1003.62 480.5 a3.88 3.88 0 1 0 7.76 0 a3.88 3.88 0 1 0 -7.76 0zM1344.62 418.5 a3.88 3.88 0 1 0 7.76 0 a3.88 3.88 0 1 0 -7.76 0zM1530.62 418.5 a3.88 3.88 0 1 0 7.76 0 a3.88 3.88 0 1 0 -7.76 0zM1654.62 418.5 a3.88 3.88 0 1 0 7.76 0 a3.88 3.88 0 1 0 -7.76 0zM1685.62 418.5 a3.88 3.88 0 1 0 7.76 0 a3.88 3.88 0 1 0 -7.76 0zM1158.62 480.5 a3.88 3.88 0 1 0 7.76 0 a3.88 3.88 0 1 0 -7.76 0zM755.62 542.5 a3.88 3.88 0 1 0 7.76 0 a3.88 3.88 0 1 0 -7.76 0zM724.62 604.5 a3.88 3.88 0 1 0 7.76 0 a3.88 3.88 0 1 0 -7.76 0z" fill="black"></path><path d="M1654.62 635.5 a3.88 3.88 0 1 0 7.76 0 a3.88 3.88 0 1 0 -7.76 0zM1654.62 666.5 a3.88 3.88 0 1 0 7.76 0 a3.88 3.88 0 1 0 -7.76 0zM1716.62 666.5 a3.88 3.88 0 1 0 7.76 0 a3.88 3.88 0 1 0 -7.76 0z" fill="black"></path><path d="M786.62 387.5 a3.88 3.88 0 1 0 7.76 0 a3.88 3.88 0 1 0 -7.76 0zM848.62 418.5 a3.88 3.88 0 1 0 7.76 0 a3.88 3.88 0 1 0 -7.76 0zM817.62 480.5 a3.88 3.88 0 1 0 7.76 0 a3.88 3.88 0 1 0 -7.76 0zM1065.62 418.5 a3.88 3.88 0 1 0 7.76 0 a3.88 3.88 0 1 0 -7.76 0zM724.62 325.5 a3.88 3.88 0 1 0 7.76 0 a3.88 3.88 0 1 0 -7.76 0zM1375.62 356.5 a3.88 3.88 0 1 0 7.76 0 a3.88 3.88 0 1 0 -7.76 0zM1127.62 418.5 a3.88 3.88 0 1 0 7.76 0 a3.88 3.88 0 1 0 -7.76 0zM1313.62 387.5 a3.88 3.88 0 1 0 7.76 0 a3.88 3.88 0 1 0 -7.76 0zM1809.62 418.5 a3.88 3.88 0 1 0 7.76 0 a3.88 3.88 0 1 0 -7.76 0zM1158.62 418.5 a3.88 3.88 0 1 0 7.76 0 a3.88 3.88 0 1 0 -7.76 0z" fill="black"></path><path d="M1809.62 666.5 a3.88 3.88 0 1 0 7.76 0 a3.88 3.88 0 1 0 -7.76 0z" fill="black"></path><path d="M1437.62 356.5 a3.88 3.88 0 1 0 7.76 0 a3.88 3.88 0 1 0 -7.76 0z" fill="black"></path><path d="M1282.62 728.5 a3.88 3.88 0 1 0 7.76 0 a3.88 3.88 0 1 0 -7.76 0zM1437.62 759.5 a3.88 3.88 0 1 0 7.76 0 a3.88 3.88 0 1 0 -7.76 0zM1282.62 759.5 a3.88 3.88 0 1 0 7.76 0 a3.88 3.88 0 1 0 -7.76 0zM1499.62 697.5 a3.88 3.88 0 1 0 7.76 0 a3.88 3.88 0 1 0 -7.76 0zM1313.62 759.5 a3.88 3.88 0 1 0 7.76 0 a3.88 3.88 0 1 0 -7.76 0zM1375.62 697.5 a3.88 3.88 0 1 0 7.76 0 a3.88 3.88 0 1 0 -7.76 0z" fill="black"></path><path d="M879.62 356.5 a3.88 3.88 0 1 0 7.76 0 a3.88 3.88 0 1 0 -7.76 0zM1189.62 325.5 a3.88 3.88 0 1 0 7.76 0 a3.88 3.88 0 1 0 -7.76 0zM941.62 325.5 a3.88 3.88 0 1 0 7.76 0 a3.88 3.88 0 1 0 -7.76 0zM1344.62 294.5 a3.88 3.88 0 1 0 7.76 0 a3.88 3.88 0 1 0 -7.76 0zM817.62 325.5 a3.88 3.88 0 1 0 7.76 0 a3.88 3.88 0 1 0 -7.76 0zM1034.62 294.5 a3.88 3.88 0 1 0 7.76 0 a3.88 3.88 0 1 0 -7.76 0zM1127.62 263.5 a3.88 3.88 0 1 0 7.76 0 a3.88 3.88 0 1 0 -7.76 0zM1065.62 263.5 a3.88 3.88 0 1 0 7.76 0 a3.88 3.88 0 1 0 -7.76 0zM1406.62 294.5 a3.88 3.88 0 1 0 7.76 0 a3.88 3.88 0 1 0 -7.76 0z" fill="black"></path><path d="M1282.62 790.5 a3.88 3.88 0 1 0 7.76 0 a3.88 3.88 0 1 0 -7.76 0zM1375.62 821.5 a3.88 3.88 0 1 0 7.76 0 a3.88 3.88 0 1 0 -7.76 0zM1561.62 790.5 a3.88 3.88 0 1 0 7.76 0 a3.88 3.88 0 1 0 -7.76 0zM1344.62 852.5 a3.88 3.88 0 1 0 7.76 0 a3.88 3.88 0 1 0 -7.76 0zM1344.62 759.5 a3.88 3.88 0 1 0 7.76 0 a3.88 3.88 0 1 0 -7.76 0zM1344.62 883.5 a3.88 3.88 0 1 0 7.76 0 a3.88 3.88 0 1 0 -7.76 0z" fill="black"></path><path d="M1375.62 263.5 a3.88 3.88 0 1 0 7.76 0 a3.88 3.88 0 1 0 -7.76 0zM1468.62 263.5 a3.88 3.88 0 1 0 7.76 0 a3.88 3.88 0 1 0 -7.76 0zM1437.62 294.5 a3.88 3.88 0 1 0 7.76 0 a3.88 3.88 0 1 0 -7.76 0zM1530.62 263.5 a3.88 3.88 0 1 0 7.76 0 a3.88 3.88 0 1 0 -7.76 0z" fill="black"></path><path d="M1840.62 759.5 a3.88 3.88 0 1 0 7.76 0 a3.88 3.88 0 1 0 -7.76 0z" fill="black"></path><path d="M817.62 294.5 a3.88 3.88 0 1 0 7.76 0 a3.88 3.88 0 1 0 -7.76 0zM1282.62 263.5 a3.88 3.88 0 1 0 7.76 0 a3.88 3.88 0 1 0 -7.76 0zM1313.62 263.5 a3.88 3.88 0 1 0 7.76 0 a3.88 3.88 0 1 0 -7.76 0zM910.62 201.5 a3.88 3.88 0 1 0 7.76 0 a3.88 3.88 0 1 0 -7.76 0zM879.62 263.5 a3.88 3.88 0 1 0 7.76 0 a3.88 3.88 0 1 0 -7.76 0zM941.62 263.5 a3.88 3.88 0 1 0 7.76 0 a3.88 3.88 0 1 0 -7.76 0zM1158.62 201.5 a3.88 3.88 0 1 0 7.76 0 a3.88 3.88 0 1 0 -7.76 0zM1561.62 263.5 a3.88 3.88 0 1 0 7.76 0 a3.88 3.88 0 1 0 -7.76 0zM1220.62 263.5 a3.88 3.88 0 1 0 7.76 0 a3.88 3.88 0 1 0 -7.76 0zM724.62 201.5 a3.88 3.88 0 1 0 7.76 0 a3.88 3.88 0 1 0 -7.76 0z" fill="black"></path><path d="M1840.62 790.5 a3.88 3.88 0 1 0 7.76 0 a3.88 3.88 0 1 0 -7.76 0zM1778.62 821.5 a3.88 3.88 0 1 0 7.76 0 a3.88 3.88 0 1 0 -7.76 0z" fill="black"></path><path d="M1096.62 139.5 a3.88 3.88 0 1 0 7.76 0 a3.88 3.88 0 1 0 -7.76 0zM1313.62 170.5 a3.88 3.88 0 1 0 7.76 0 a3.88 3.88 0 1 0 -7.76 0zM1375.62 139.5 a3.88 3.88 0 1 0 7.76 0 a3.88 3.88 0 1 0 -7.76 0zM1003.62 170.5 a3.88 3.88 0 1 0 7.76 0 a3.88 3.88 0 1 0 -7.76 0zM1716.62 201.5 a3.88 3.88 0 1 0 7.76 0 a3.88 3.88 0 1 0 -7.76 0zM1437.62 139.5 a3.88 3.88 0 1 0 7.76 0 a3.88 3.88 0 1 0 -7.76 0zM1623.62 201.5 a3.88 3.88 0 1 0 7.76 0 a3.88 3.88 0 1 0 -7.76 0zM1654.62 139.5 a3.88 3.88 0 1 0 7.76 0 a3.88 3.88 0 1 0 -7.76 0z" fill="black"></path></mask></defs></svg>